<?xml version="1.0" encoding="iso-8859-1"?>
<!-- Generator: Adobe Illustrator 19.0.0, SVG Export Plug-In . SVG Version: 6.00 Build 0)  -->
<svg version="1.1" id="Layer_1" xmlns="http://www.w3.org/2000/svg" xmlns:xlink="http://www.w3.org/1999/xlink" x="0px" y="0px"
	 viewBox="0 0 496.005 496.005" style="enable-background:new 0 0 496.005 496.005;" xml:space="preserve">
<path style="fill:#EFE3CB;" d="M496.005,32.402h-412c-18.4,0-36,16.8-36,35.2v263.2c0,18.4,1.6,29.6,20.8,29.6h427.2V32.402z"/>
<path style="fill:#E5D7BE;" d="M50.405,327.602c0,18.4-0.8,32.8,18.4,32.8h427.2v-328"/>
<path style="fill:#FFB000;" d="M496.005,381.202c0,18.4-15.2,35.2-33.6,35.2h-444c-19.2,0-18.4-16.8-18.4-35.2v-263.2
	c0-18.4,15.2-29.6,33.6-29.6h428.8c18.4,0,33.6,11.2,33.6,29.6V381.202z"/>
<g>
	<path style="fill:#FF9D00;" d="M462.405,88.402c18.4,0,33.6,11.2,33.6,29.6v263.2c0,18.4-15.2,35.2-33.6,35.2h-444
		c-19.2,0-18.4-16-18.4-34.4"/>
	<polygon style="fill:#FF9D00;" points="496.005,301.202 496.005,462.802 308.005,338.002 	"/>
</g>
<path style="fill:#FF6D00;" d="M496.005,463.602c0-1.6,0-3.2,0-4.8v-2.4c0-23.2-19.2-40-42.4-40h-30.4L496.005,463.602z"/>
<g>
	<path style="fill:#FF9100;" d="M364.805,200.402h-233.6c-7.2,0-12.8-4.8-12.8-12s5.6-12,12.8-12h233.6c7.2,0,12.8,4.8,12.8,12
		C377.605,195.602,372.005,200.402,364.805,200.402z"/>
	<path style="fill:#FF9100;" d="M364.805,272.402h-233.6c-7.2,0-12.8-4.8-12.8-12c0-7.2,5.6-12,12.8-12h233.6
		c7.2,0,12.8,4.8,12.8,12C377.605,267.602,372.005,272.402,364.805,272.402z"/>
	<path style="fill:#FF9100;" d="M257.605,344.402h-126.4c-7.2,0-12.8-4.8-12.8-12s5.6-12,12.8-12h126.4c7.2,0,12.8,4.8,12.8,12
		S264.805,344.402,257.605,344.402z"/>
</g>
<g>
	<path style="fill:#F8FFFF;" d="M364.805,192.402h-233.6c-7.2,0-12.8-4.8-12.8-12s5.6-12,12.8-12h233.6c7.2,0,12.8,4.8,12.8,12
		C377.605,187.602,372.005,192.402,364.805,192.402z"/>
	<path style="fill:#F8FFFF;" d="M364.805,264.402h-233.6c-7.2,0-12.8-4.8-12.8-12c0-7.2,5.6-12,12.8-12h233.6
		c7.2,0,12.8,4.8,12.8,12C377.605,259.602,372.005,264.402,364.805,264.402z"/>
	<path style="fill:#F8FFFF;" d="M257.605,336.402h-126.4c-7.2,0-12.8-4.8-12.8-12s5.6-12,12.8-12h126.4c7.2,0,12.8,4.8,12.8,12
		S264.805,336.402,257.605,336.402z"/>
</g>
<g>
</g>
<g>
</g>
<g>
</g>
<g>
</g>
<g>
</g>
<g>
</g>
<g>
</g>
<g>
</g>
<g>
</g>
<g>
</g>
<g>
</g>
<g>
</g>
<g>
</g>
<g>
</g>
<g>
</g>
</svg>
